<mxfile host="app.diagrams.net" modified="2024-03-02T13:30:02.806Z" agent="Mozilla/5.0 (Windows NT 10.0; Win64; x64) AppleWebKit/537.36 (KHTML, like Gecko) Chrome/122.0.0.0 Safari/537.36 Edg/122.0.0.0" etag="Y-8AfHuTh8x_BSOpWvIN" version="24.0.0" type="device">
  <diagram name="Страница — 1" id="KgzQExwlIS4yWVlYAdjU">
    <mxGraphModel dx="1126" dy="619" grid="1" gridSize="10" guides="1" tooltips="1" connect="1" arrows="1" fold="1" page="1" pageScale="1" pageWidth="827" pageHeight="1169" math="0" shadow="0">
      <root>
        <mxCell id="0" />
        <mxCell id="1" parent="0" />
        <mxCell id="_LntLs4zgXU6D0_gm6xL-1" value="" style="ellipse;whiteSpace=wrap;html=1;aspect=fixed;" vertex="1" parent="1">
          <mxGeometry x="370" y="280" width="80" height="80" as="geometry" />
        </mxCell>
        <mxCell id="_LntLs4zgXU6D0_gm6xL-2" value="" style="ellipse;whiteSpace=wrap;html=1;aspect=fixed;" vertex="1" parent="1">
          <mxGeometry x="510" y="280" width="80" height="80" as="geometry" />
        </mxCell>
        <mxCell id="_LntLs4zgXU6D0_gm6xL-3" value="" style="ellipse;whiteSpace=wrap;html=1;aspect=fixed;" vertex="1" parent="1">
          <mxGeometry x="660" y="280" width="80" height="80" as="geometry" />
        </mxCell>
        <mxCell id="_LntLs4zgXU6D0_gm6xL-4" value="" style="ellipse;whiteSpace=wrap;html=1;aspect=fixed;" vertex="1" parent="1">
          <mxGeometry x="800" y="280" width="80" height="80" as="geometry" />
        </mxCell>
        <mxCell id="_LntLs4zgXU6D0_gm6xL-5" value="" style="endArrow=classic;html=1;rounded=0;entryX=0;entryY=0;entryDx=0;entryDy=0;" edge="1" parent="1" target="_LntLs4zgXU6D0_gm6xL-1">
          <mxGeometry width="50" height="50" relative="1" as="geometry">
            <mxPoint x="270" y="240" as="sourcePoint" />
            <mxPoint x="440" y="300" as="targetPoint" />
          </mxGeometry>
        </mxCell>
        <mxCell id="_LntLs4zgXU6D0_gm6xL-6" value="" style="endArrow=classic;html=1;rounded=0;entryX=0;entryY=0;entryDx=0;entryDy=0;exitX=1;exitY=0;exitDx=0;exitDy=0;" edge="1" parent="1" source="_LntLs4zgXU6D0_gm6xL-1" target="_LntLs4zgXU6D0_gm6xL-2">
          <mxGeometry width="50" height="50" relative="1" as="geometry">
            <mxPoint x="390" y="350" as="sourcePoint" />
            <mxPoint x="440" y="300" as="targetPoint" />
            <Array as="points">
              <mxPoint x="480" y="230" />
            </Array>
          </mxGeometry>
        </mxCell>
        <mxCell id="_LntLs4zgXU6D0_gm6xL-7" value="" style="endArrow=classic;html=1;rounded=0;entryX=0;entryY=0;entryDx=0;entryDy=0;exitX=0.875;exitY=0.125;exitDx=0;exitDy=0;exitPerimeter=0;" edge="1" parent="1" source="_LntLs4zgXU6D0_gm6xL-2" target="_LntLs4zgXU6D0_gm6xL-3">
          <mxGeometry width="50" height="50" relative="1" as="geometry">
            <mxPoint x="590" y="292" as="sourcePoint" />
            <mxPoint x="674" y="292" as="targetPoint" />
            <Array as="points">
              <mxPoint x="632" y="230" />
            </Array>
          </mxGeometry>
        </mxCell>
        <mxCell id="_LntLs4zgXU6D0_gm6xL-8" value="" style="endArrow=classic;html=1;rounded=0;entryX=0;entryY=0;entryDx=0;entryDy=0;exitX=0.813;exitY=0.073;exitDx=0;exitDy=0;exitPerimeter=0;" edge="1" parent="1" source="_LntLs4zgXU6D0_gm6xL-3" target="_LntLs4zgXU6D0_gm6xL-4">
          <mxGeometry width="50" height="50" relative="1" as="geometry">
            <mxPoint x="720" y="290" as="sourcePoint" />
            <mxPoint x="812" y="292" as="targetPoint" />
            <Array as="points">
              <mxPoint x="772" y="230" />
            </Array>
          </mxGeometry>
        </mxCell>
        <mxCell id="_LntLs4zgXU6D0_gm6xL-9" value="" style="endArrow=classic;html=1;rounded=0;exitX=0;exitY=1;exitDx=0;exitDy=0;entryX=1;entryY=1;entryDx=0;entryDy=0;" edge="1" parent="1" source="_LntLs4zgXU6D0_gm6xL-4" target="_LntLs4zgXU6D0_gm6xL-1">
          <mxGeometry width="50" height="50" relative="1" as="geometry">
            <mxPoint x="390" y="350" as="sourcePoint" />
            <mxPoint x="440" y="300" as="targetPoint" />
            <Array as="points">
              <mxPoint x="610" y="430" />
            </Array>
          </mxGeometry>
        </mxCell>
        <mxCell id="_LntLs4zgXU6D0_gm6xL-10" value="START_I" style="text;html=1;align=center;verticalAlign=middle;whiteSpace=wrap;rounded=0;" vertex="1" parent="1">
          <mxGeometry x="240" y="210" width="60" height="30" as="geometry" />
        </mxCell>
        <mxCell id="_LntLs4zgXU6D0_gm6xL-11" value="START" style="text;html=1;align=center;verticalAlign=middle;whiteSpace=wrap;rounded=0;" vertex="1" parent="1">
          <mxGeometry x="380" y="305" width="60" height="30" as="geometry" />
        </mxCell>
        <mxCell id="_LntLs4zgXU6D0_gm6xL-12" value="CALC&lt;div&gt;A*B&lt;/div&gt;" style="text;html=1;align=center;verticalAlign=middle;whiteSpace=wrap;rounded=0;" vertex="1" parent="1">
          <mxGeometry x="520" y="305" width="60" height="30" as="geometry" />
        </mxCell>
        <mxCell id="_LntLs4zgXU6D0_gm6xL-13" value="CALC&amp;nbsp;&lt;div&gt;A^3&lt;/div&gt;" style="text;html=1;align=center;verticalAlign=middle;whiteSpace=wrap;rounded=0;" vertex="1" parent="1">
          <mxGeometry x="670" y="305" width="60" height="30" as="geometry" />
        </mxCell>
        <mxCell id="_LntLs4zgXU6D0_gm6xL-14" value="SUM" style="text;html=1;align=center;verticalAlign=middle;whiteSpace=wrap;rounded=0;" vertex="1" parent="1">
          <mxGeometry x="810" y="305" width="60" height="30" as="geometry" />
        </mxCell>
        <mxCell id="_LntLs4zgXU6D0_gm6xL-15" value="start_i" style="text;html=1;align=center;verticalAlign=middle;whiteSpace=wrap;rounded=0;" vertex="1" parent="1">
          <mxGeometry x="450" y="200" width="60" height="30" as="geometry" />
        </mxCell>
        <mxCell id="_LntLs4zgXU6D0_gm6xL-16" value="busy = 0" style="text;html=1;align=center;verticalAlign=middle;whiteSpace=wrap;rounded=0;" vertex="1" parent="1">
          <mxGeometry x="600" y="200" width="60" height="30" as="geometry" />
        </mxCell>
        <mxCell id="_LntLs4zgXU6D0_gm6xL-17" value="(a_mul_cnt=1 &amp;amp; busy = 0)" style="text;html=1;align=center;verticalAlign=middle;whiteSpace=wrap;rounded=0;" vertex="1" parent="1">
          <mxGeometry x="680" y="200" width="170" height="30" as="geometry" />
        </mxCell>
      </root>
    </mxGraphModel>
  </diagram>
</mxfile>
